<svg width="25" height="25" viewBox="0 0 25 25" fill="none" xmlns="http://www.w3.org/2000/svg">
<g clip-path="url(#clip0_36_3476)">
<path d="M17.9961 21.24V19.24C17.9961 18.1791 17.5747 17.1617 16.8245 16.4116C16.0744 15.6614 15.057 15.24 13.9961 15.24H5.99609C4.93523 15.24 3.91781 15.6614 3.16767 16.4116C2.41752 17.1617 1.99609 18.1791 1.99609 19.24V21.24" stroke="#565555" stroke-width="2" stroke-linecap="round" stroke-linejoin="round"/>
<path d="M9.99609 11.24C12.2052 11.24 13.9961 9.44913 13.9961 7.23999C13.9961 5.03085 12.2052 3.23999 9.99609 3.23999C7.78695 3.23999 5.99609 5.03085 5.99609 7.23999C5.99609 9.44913 7.78695 11.24 9.99609 11.24Z" stroke="#565555" stroke-width="2" stroke-linecap="round" stroke-linejoin="round"/>
<path d="M23.9961 21.2399V19.2399C23.9954 18.3536 23.7004 17.4926 23.1575 16.7922C22.6145 16.0917 21.8542 15.5914 20.9961 15.3699" stroke="#565555" stroke-width="2" stroke-linecap="round" stroke-linejoin="round"/>
<path d="M16.9961 3.36987C17.8565 3.59017 18.6191 4.09057 19.1637 4.79218C19.7083 5.49379 20.0039 6.3567 20.0039 7.24487C20.0039 8.13304 19.7083 8.99595 19.1637 9.69756C18.6191 10.3992 17.8565 10.8996 16.9961 11.1199" stroke="#565555" stroke-width="2" stroke-linecap="round" stroke-linejoin="round"/>
</g>
<defs>
<clipPath id="clip0_36_3476">
<rect width="24" height="24" fill="white" transform="translate(0.996094 0.23999)"/>
</clipPath>
</defs>
</svg>
